SplineFontDB: 3.2
FontName: Untitled1
FullName: Untitled1
FamilyName: Untitled1
Weight: Regular
Copyright: Copyright (c) 2024, W
UComments: "2024-7-21: Created with FontForge (http://fontforge.org)"
Version: 001.000
ItalicAngle: 0
UnderlinePosition: -100
UnderlineWidth: 50
Ascent: 800
Descent: 200
InvalidEm: 0
LayerCount: 2
Layer: 0 0 "Back" 1
Layer: 1 0 "Fore" 0
XUID: [1021 317 855815283 30431]
OS2Version: 0
OS2_WeightWidthSlopeOnly: 0
OS2_UseTypoMetrics: 1
CreationTime: 1721614628
ModificationTime: 1721627948
OS2TypoAscent: 0
OS2TypoAOffset: 1
OS2TypoDescent: 0
OS2TypoDOffset: 1
OS2TypoLinegap: 0
OS2WinAscent: 0
OS2WinAOffset: 1
OS2WinDescent: 0
OS2WinDOffset: 1
HheadAscent: 0
HheadAOffset: 1
HheadDescent: 0
HheadDOffset: 1
OS2Vendor: 'PfEd'
DEI: 91125
Encoding: ISO8859-1
UnicodeInterp: none
NameList: AGL For New Fonts
DisplaySize: -48
AntiAlias: 1
FitToEm: 0
WinInfo: 0 19 14
BeginChars: 256 39

StartChar: exclam
Encoding: 33 33 0
Width: 1000
Flags: H
LayerCount: 2
Fore
SplineSet
538.936523438 266.265625 m 1
 485.124023438 222.044921875 485.124023438 177.987304688 538.936523438 133.766601562 c 1
 485.124023438 166.932617188 431.311523438 166.932617188 377.5 133.766601562 c 1
 431.311523438 177.987304688 431.311523438 222.044921875 377.5 266.265625 c 1
 431.311523438 233.100585938 485.124023438 233.100585938 538.936523438 266.265625 c 1
475.532226562 185.791015625 m 1
 475.532226562 214.079101562 l 1
 441.06640625 214.079101562 l 1
 441.06640625 185.791015625 l 1
 475.532226562 185.791015625 l 1
410.33984375 634.172851562 m 0
 420.907226562 646.041015625 442.204101562 651.081054688 458.299804688 651.081054688 c 0
 474.39453125 651.081054688 495.529296875 646.204101562 506.258789062 634.172851562 c 0
 474.39453125 577.434570312 474.39453125 350.8046875 506.258789062 294.228515625 c 0
 495.69140625 282.360351562 474.39453125 277.3203125 458.299804688 277.3203125 c 0
 442.204101562 277.3203125 421.069335938 282.198242188 410.33984375 294.228515625 c 0
 442.204101562 350.967773438 442.204101562 577.596679688 410.33984375 634.172851562 c 0
EndSplineSet
EndChar

StartChar: quotedbl
Encoding: 34 34 1
Width: 1000
Flags: H
LayerCount: 2
Fore
SplineSet
516.62890625 541.278320312 m 0
 532.442382812 541.278320312 547.440429688 495.95703125 548.092773438 451.614257812 c 0
 547.27734375 407.270507812 532.279296875 361.950195312 516.62890625 361.950195312 c 0
 500.815429688 361.950195312 485.81640625 407.270507812 485.165039062 451.614257812 c 0
 485.979492188 495.95703125 500.978515625 541.278320312 516.62890625 541.278320312 c 0
407.075195312 541.278320312 m 0
 422.725585938 541.278320312 437.724609375 495.95703125 438.5390625 451.614257812 c 0
 437.88671875 407.270507812 422.888671875 361.950195312 407.075195312 361.950195312 c 0
 391.424804688 361.950195312 376.426757812 407.270507812 375.611328125 451.614257812 c 0
 376.263671875 495.95703125 391.26171875 541.278320312 407.075195312 541.278320312 c 0
EndSplineSet
EndChar

StartChar: quotesingle
Encoding: 39 39 2
Width: 1000
Flags: H
LayerCount: 2
Back
SplineSet
462.227539062 541.615234375 m 0
 478.020507812 541.615234375 492.999023438 496.352539062 493.650390625 452.067382812 c 0
 492.8359375 407.782226562 477.857421875 362.520507812 462.227539062 362.520507812 c 0
 446.434570312 362.520507812 431.455078125 407.782226562 430.8046875 452.067382812 c 0
 431.618164062 496.352539062 446.59765625 541.615234375 462.227539062 541.615234375 c 0
EndSplineSet
Fore
SplineSet
462.227539062 541.615234375 m 0
 478.020507812 541.615234375 492.999023438 496.352539062 493.650390625 452.067382812 c 0
 492.8359375 407.782226562 477.857421875 362.520507812 462.227539062 362.520507812 c 0
 446.434570312 362.520507812 431.455078125 407.782226562 430.8046875 452.067382812 c 0
 431.618164062 496.352539062 446.59765625 541.615234375 462.227539062 541.615234375 c 0
EndSplineSet
EndChar

StartChar: comma
Encoding: 44 44 3
Width: 1000
Flags: H
LayerCount: 2
Fore
SplineSet
515.918945312 111.403320312 m 1
 479.857421875 155.42578125 443.794921875 155.42578125 407.732421875 111.403320312 c 1
 434.860351562 155.42578125 434.860351562 199.28515625 407.732421875 243.307617188 c 1
 443.794921875 199.28515625 479.857421875 199.28515625 515.918945312 243.307617188 c 1
 488.791015625 199.28515625 488.791015625 155.42578125 515.918945312 111.403320312 c 1
450.129882812 163.22265625 m 1
 473.359375 163.22265625 l 1
 473.359375 191.48828125 l 1
 450.129882812 191.48828125 l 1
 450.129882812 163.22265625 l 1
EndSplineSet
EndChar

StartChar: period
Encoding: 46 46 4
Width: 1000
Flags: H
LayerCount: 2
Fore
SplineSet
495.701171875 199.837890625 m 1
 495.5390625 199.837890625 l 1
 507.055664062 137.875 471.045898438 38.60546875 364.4765625 50.9326171875 c 1
 420.924804688 106.245117188 422.546875 179.399414062 410.21875 199.837890625 c 0
 433.4140625 217.680664062 472.505859375 217.680664062 495.701171875 199.837890625 c 1
EndSplineSet
EndChar

StartChar: semicolon
Encoding: 59 59 5
Width: 1000
Flags: H
LayerCount: 2
Fore
SplineSet
523.654296875 479.239257812 m 1
 476.99609375 440.87109375 476.99609375 402.666015625 523.654296875 364.298828125 c 1
 476.99609375 393.07421875 430.336914062 393.07421875 383.677734375 364.298828125 c 1
 430.336914062 402.666015625 430.336914062 440.87109375 383.677734375 479.239257812 c 1
 430.336914062 450.462890625 476.99609375 450.462890625 523.654296875 479.239257812 c 1
468.704101562 409.494140625 m 1
 468.704101562 434.04296875 l 1
 438.790039062 434.04296875 l 1
 438.790039062 409.494140625 l 1
 468.704101562 409.494140625 l 1
493.252929688 270.817382812 m 0
 504.145507812 211.802734375 469.842773438 117.021484375 368.232421875 128.889648438 c 1
 422.044921875 181.564453125 423.508789062 251.30859375 411.802734375 270.817382812 c 0
 433.750976562 287.887695312 471.142578125 287.887695312 493.252929688 270.817382812 c 0
EndSplineSet
EndChar

StartChar: colon
Encoding: 58 58 6
Width: 1000
Flags: H
LayerCount: 2
Fore
SplineSet
518.356445312 118.875976562 m 1
 478.557617188 167.284179688 438.920898438 167.284179688 399.28515625 118.875976562 c 1
 429.012695312 167.12109375 429.012695312 215.3671875 399.28515625 263.775390625 c 1
 439.083984375 215.3671875 478.719726562 215.3671875 518.356445312 263.775390625 c 1
 488.62890625 215.529296875 488.62890625 167.284179688 518.356445312 118.875976562 c 1
446.069335938 175.893554688 m 1
 471.572265625 175.893554688 l 1
 471.572265625 206.919921875 l 1
 446.069335938 206.919921875 l 1
 446.069335938 175.893554688 l 1
518.356445312 328.264648438 m 1
 478.557617188 376.672851562 438.920898438 376.672851562 399.28515625 328.264648438 c 1
 429.012695312 376.510742188 429.012695312 424.755859375 399.28515625 473.1640625 c 1
 439.083984375 424.755859375 478.719726562 424.755859375 518.356445312 473.1640625 c 1
 488.62890625 424.918945312 488.62890625 376.672851562 518.356445312 328.264648438 c 1
446.069335938 385.282226562 m 1
 471.572265625 385.282226562 l 1
 471.572265625 416.309570312 l 1
 446.069335938 416.309570312 l 1
 446.069335938 385.282226562 l 1
EndSplineSet
EndChar

StartChar: question
Encoding: 63 63 7
Width: 1000
Flags: H
LayerCount: 2
Fore
SplineSet
456.0234375 267.891601562 m 1
 399.122070312 221.232421875 399.122070312 174.573242188 456.0234375 127.9140625 c 1
 399.122070312 163.030273438 342.383789062 163.030273438 285.482421875 127.9140625 c 1
 342.383789062 174.573242188 342.383789062 221.232421875 285.482421875 267.891601562 c 1
 342.383789062 232.775390625 399.122070312 232.775390625 456.0234375 267.891601562 c 1
389.041992188 182.864257812 m 1
 389.041992188 212.778320312 l 1
 352.462890625 212.778320312 l 1
 352.462890625 182.864257812 l 1
 389.041992188 182.864257812 l 1
655.991210938 517.119140625 m 2
 655.991210938 516.95703125 l 2
 655.991210938 465.908203125 614.046875 420.549804688 548.69140625 391.123046875 c 1
 548.853515625 391.123046875 l 1
 548.041015625 390.797851562 547.390625 390.635742188 546.578125 390.310546875 c 0
 532.596679688 383.969726562 517.314453125 378.60546875 501.381835938 373.890625 c 0
 419.931640625 347.553710938 386.766601562 351.129882812 390.66796875 287.075195312 c 0
 386.44140625 283.3359375 377.987304688 281.873046875 371.646484375 281.873046875 c 0
 365.306640625 281.873046875 356.852539062 283.499023438 352.625976562 287.075195312 c 0
 363.193359375 304.633789062 364.005859375 367.712890625 352.625976562 388.034179688 c 1
 400.09765625 388.84765625 l 2
 505.284179688 397.30078125 586.571289062 451.438476562 586.571289062 517.119140625 c 0
 586.571289062 588.489257812 490.327148438 646.529296875 371.646484375 646.529296875 c 0
 365.793945312 646.529296875 359.94140625 646.366210938 354.250976562 646.041015625 c 0
 330.190429688 641.9765625 320.923828125 628.645507812 330.190429688 611.575195312 c 1
 309.54296875 603.934570312 l 1
 266.297851562 666.688476562 l 1
 298.813476562 674.00390625 334.416992188 678.068359375 371.646484375 678.068359375 c 0
 528.694335938 678.068359375 655.991210938 606.047851562 655.991210938 517.119140625 c 2
EndSplineSet
EndChar

StartChar: A
Encoding: 65 65 8
Width: 1000
Flags: H
LayerCount: 2
Fore
SplineSet
461.875976562 650.59375 m 1
 629.002929688 584.100585938 868.639648438 308.047851562 888.473632812 132.62890625 c 1
 724.434570312 132.62890625 l 1
 724.434570312 191.806640625 l 1
 787.514648438 191.806640625 l 2
 869.939453125 191.806640625 666.233398438 428.515625 490.814453125 428.515625 c 1
 490.814453125 518.745117188 l 1
 432.775390625 518.745117188 l 1
 432.775390625 428.515625 l 1
 257.356445312 428.515625 53.6494140625 191.806640625 136.075195312 191.806640625 c 2
 199.154296875 191.806640625 l 1
 199.154296875 132.62890625 l 1
 35.44140625 132.62890625 l 1
 55.11328125 308.047851562 294.749023438 584.100585938 462.0390625 650.59375 c 1
 461.875976562 650.59375 l 1
EndSplineSet
EndChar

StartChar: B
Encoding: 66 66 9
Width: 1000
Flags: H
LayerCount: 2
Fore
SplineSet
694.521484375 391.611328125 m 1
 694.358398438 391.448242188 l 1
 1051.2109375 256.510742188 566.899414062 151.325195312 331.491210938 156.365234375 c 1
 331.491210938 156.202148438 331.491210938 156.202148438 331.491210938 156.202148438 c 2
 312.306640625 139.782226562 273.939453125 132.954101562 245.163085938 132.954101562 c 0
 216.387695312 132.954101562 160.461914062 139.782226562 141.278320312 156.202148438 c 1
 193.790039062 203.348632812 201.268554688 284.1484375 201.91796875 375.841796875 c 1
 289.383789062 349.341796875 l 1
 289.383789062 349.341796875 l 1
 291.497070312 300.40625 297.349609375 253.584960938 306.779296875 216.517578125 c 0
 435.375976562 203.836914062 669.809570312 265.940429688 716.793945312 304.795898438 c 1
 716.793945312 304.795898438 622.98828125 353.40625 496.341796875 353.40625 c 0
 325.475585938 353.40625 238.009765625 391.448242188 238.009765625 391.448242188 c 1
 238.009765625 391.448242188 325.475585938 429.491210938 496.341796875 429.491210938 c 0
 622.825195312 429.491210938 716.793945312 478.1015625 716.793945312 478.1015625 c 1
 669.809570312 516.95703125 435.375976562 579.060546875 306.779296875 566.379882812 c 0
 297.349609375 529.3125 291.497070312 482.653320312 289.383789062 433.555664062 c 2
 201.91796875 407.055664062 l 1
 200.455078125 497.935546875 185.172851562 572.232421875 99.3330078125 626.857421875 c 1
 118.517578125 643.27734375 216.549804688 650.10546875 245.326171875 650.10546875 c 0
 274.1015625 650.10546875 312.469726562 643.27734375 331.653320312 626.857421875 c 0
 331.653320312 626.6953125 331.653320312 626.6953125 331.653320312 626.6953125 c 1
 567.0625 631.897460938 1051.37402344 526.548828125 694.521484375 391.611328125 c 1
EndSplineSet
EndChar

StartChar: C
Encoding: 67 67 10
Width: 1000
Flags: H
LayerCount: 2
Fore
SplineSet
135.587890625 391.611328125 m 2
 135.587890625 391.936523438 l 2
 135.262695312 468.833984375 115.428710938 545.245117188 76.41015625 576.784179688 c 1
 279.303710938 591.903320312 600.390625 706.681640625 842.626953125 602.958984375 c 1
 811.087890625 449.163085938 l 1
 744.756835938 455.340820312 l 1
 842.626953125 602.795898438 242.724609375 675.142578125 242.724609375 391.7734375 c 0
 242.724609375 108.405273438 842.626953125 180.588867188 744.756835938 328.20703125 c 1
 811.087890625 334.384765625 l 1
 842.626953125 180.588867188 l 1
 600.390625 76.703125 279.303710938 191.643554688 76.41015625 206.762695312 c 1
 115.428710938 238.302734375 135.099609375 314.712890625 135.587890625 391.611328125 c 2
EndSplineSet
EndChar

StartChar: D
Encoding: 68 68 11
Width: 1000
Flags: H
LayerCount: 2
Fore
SplineSet
161.112304688 650.10546875 m 2
 161.112304688 650.10546875 860.185546875 630.758789062 860.185546875 391.611328125 c 0
 860.185546875 152.462890625 161.112304688 132.954101562 161.112304688 132.954101562 c 2
 132.3359375 132.954101562 93.96875 139.782226562 74.7841796875 156.202148438 c 0
 132.3359375 234.725585938 132.3359375 548.49609375 74.7841796875 626.857421875 c 0
 93.96875 643.27734375 132.3359375 650.10546875 161.112304688 650.10546875 c 2
264.834960938 205.950195312 m 0
 421.232421875 216.842773438 762.477539062 256.348632812 762.477539062 391.448242188 c 0
 762.477539062 526.548828125 421.232421875 565.891601562 264.834960938 576.947265625 c 0
 221.427734375 525.735351562 188.099609375 445.5859375 188.099609375 391.448242188 c 0
 188.099609375 337.310546875 221.427734375 257.161132812 264.834960938 205.950195312 c 0
EndSplineSet
EndChar

StartChar: E
Encoding: 69 69 12
Width: 1000
Flags: H
LayerCount: 2
Fore
SplineSet
49.91015625 258.299804688 m 1
 378.637695312 278.784179688 314.095703125 487.205078125 66.005859375 519.557617188 c 1
 231.83203125 683.920898438 634.04296875 688.310546875 829.784179688 506.389648438 c 1
 735.65234375 438.107421875 l 1
 652.739257812 453.71484375 l 1
 768.98046875 553.2109375 413.590820312 595.967773438 350.186523438 560.364257812 c 0
 286.782226562 524.759765625 354.250976562 405.91796875 427.084960938 403.8046875 c 0
 646.561523438 397.463867188 794.830078125 368.525390625 794.830078125 368.525390625 c 1
 794.830078125 368.525390625 644.610351562 347.390625 429.5234375 340.400390625 c 0
 354.576171875 337.9609375 331.978515625 223.020507812 391.806640625 196.845703125 c 0
 467.891601562 160.591796875 776.458984375 185.302734375 718.094726562 288.701171875 c 1
 774.345703125 297.805664062 l 1
 856.608398438 216.680664062 l 1
 612.095703125 103.203125 195.578125 99.30078125 49.91015625 258.299804688 c 1
EndSplineSet
EndChar

StartChar: F
Encoding: 70 70 13
Width: 1000
Flags: H
LayerCount: 2
Fore
SplineSet
277.840820312 468.346679688 m 1
 387.579101562 329.182617188 715.331054688 424.451171875 715.331054688 424.451171875 c 2
 726.548828125 411.283203125 731.263671875 384.9453125 731.263671875 365.111328125 c 0
 731.263671875 345.27734375 726.548828125 318.940429688 715.331054688 305.771484375 c 2
 715.331054688 305.771484375 88.603515625 411.770507812 363.030273438 165.143554688 c 1
 337.34375 143.033203125 285.807617188 133.9296875 247.114257812 133.9296875 c 0
 208.421875 133.9296875 157.047851562 143.196289062 131.198242188 165.143554688 c 1
 291.822265625 325.768554688 232.157226562 485.579101562 72.0205078125 645.715820312 c 1
 256.055664062 587.189453125 621.200195312 591.578125 842.790039062 623.443359375 c 0
 853.357421875 611.087890625 857.747070312 586.375976562 857.747070312 567.842773438 c 0
 857.747070312 549.30859375 853.357421875 524.59765625 842.790039062 512.2421875 c 2
 842.790039062 512.2421875 463.338867188 625.069335938 277.840820312 468.346679688 c 1
EndSplineSet
EndChar

StartChar: G
Encoding: 71 71 14
Width: 1000
Flags: H
LayerCount: 2
Fore
SplineSet
703.462890625 401.853515625 m 2
 703.625 401.690429688 l 2
 772.8828125 400.552734375 843.602539062 377.3046875 843.602539062 352.755859375 c 0
 843.602539062 187.904296875 711.916992188 136.693359375 508.047851562 136.693359375 c 0
 369.858398438 136.693359375 104.2109375 279.271484375 52.0244140625 371.2890625 c 1
 104.2109375 472.0859375 321.411132812 616.615234375 459.275390625 628.483398438 c 0
 532.108398438 634.823242188 768.330078125 595.317382812 825.881835938 646.854492188 c 1
 838.400390625 632.384765625 843.602539062 603.12109375 843.602539062 581.3359375 c 0
 843.602539062 559.551757812 838.400390625 530.450195312 825.881835938 515.818359375 c 0
 711.75390625 554.673828125 538.936523438 557.600585938 538.936523438 557.600585938 c 2
 430.173828125 553.698242188 319.78515625 482.165039062 302.71484375 402.015625 c 1
 241.26171875 402.015625 l 1
 241.26171875 332.108398438 l 1
 312.14453125 332.108398438 l 1
 345.47265625 263.827148438 442.854492188 207.576171875 538.936523438 204.32421875 c 0
 622.98828125 207.250976562 708.177734375 250.983398438 750.284179688 307.72265625 c 1
 735.327148438 305.446289062 719.232421875 304.30859375 703.462890625 303.983398438 c 0
 634.206054688 305.12109375 563.485351562 328.532226562 563.485351562 352.91796875 c 0
 563.485351562 377.3046875 634.04296875 400.71484375 703.462890625 401.853515625 c 2
EndSplineSet
EndChar

StartChar: H
Encoding: 72 72 15
Width: 1000
Flags: H
LayerCount: 2
Fore
SplineSet
655.828125 151.8125 m 2
 655.828125 151.8125 780.848632812 326.581054688 460.575195312 326.581054688 c 0
 140.139648438 326.581054688 265.322265625 151.8125 265.322265625 151.8125 c 2
 251.015625 135.392578125 222.240234375 128.564453125 200.618164062 128.564453125 c 0
 178.995117188 128.564453125 150.381835938 135.392578125 135.913085938 151.8125 c 0
 178.995117188 230.173828125 178.995117188 543.944335938 135.913085938 622.467773438 c 0
 150.219726562 638.887695312 178.995117188 645.715820312 200.618164062 645.715820312 c 0
 222.240234375 645.715820312 250.853515625 638.887695312 265.322265625 622.467773438 c 2
 265.322265625 622.467773438 146.805664062 400.71484375 460.575195312 400.71484375 c 0
 774.345703125 400.71484375 655.828125 622.467773438 655.828125 622.467773438 c 2
 670.134765625 638.887695312 698.911132812 645.715820312 720.533203125 645.715820312 c 0
 742.155273438 645.715820312 770.768554688 638.887695312 785.23828125 622.467773438 c 0
 742.155273438 544.106445312 742.155273438 230.336914062 785.23828125 151.8125 c 0
 770.931640625 135.392578125 742.155273438 128.564453125 720.533203125 128.564453125 c 0
 698.911132812 128.564453125 670.297851562 135.392578125 655.828125 151.8125 c 2
EndSplineSet
EndChar

StartChar: I
Encoding: 73 73 16
Width: 1000
Flags: H
LayerCount: 2
Fore
SplineSet
676.637695312 242.854492188 m 0
 711.591796875 223.670898438 722.484375 186.278320312 722.484375 186.278320312 c 1
 705.088867188 177.336914062 655.015625 171.159179688 592.26171875 167.58203125 c 1
 597.30078125 161.567382812 602.50390625 156.365234375 608.193359375 151.8125 c 1
 575.516601562 135.392578125 509.998046875 128.564453125 460.900390625 128.564453125 c 0
 411.802734375 128.564453125 346.28515625 135.392578125 313.607421875 151.8125 c 1
 319.134765625 156.202148438 324.337890625 161.404296875 329.21484375 167.2578125 c 1
 264.022460938 170.833984375 211.8359375 177.174804688 193.952148438 186.278320312 c 1
 193.952148438 186.278320312 204.844726562 223.833984375 239.798828125 243.1796875 c 0
 255.73046875 236.676757812 304.015625 232.287109375 363.193359375 230.173828125 c 0
 395.220703125 320.240234375 395.220703125 454.202148438 363.193359375 544.26953125 c 0
 304.015625 542.155273438 255.73046875 537.766601562 239.798828125 531.42578125 c 0
 204.844726562 550.609375 193.952148438 588.001953125 193.952148438 588.001953125 c 1
 211.998046875 597.268554688 264.022460938 603.609375 329.21484375 607.0234375 c 1
 324.337890625 612.875976562 319.134765625 618.078125 313.607421875 622.467773438 c 1
 346.28515625 638.887695312 411.802734375 645.715820312 460.900390625 645.715820312 c 0
 509.998046875 645.715820312 575.516601562 638.887695312 608.193359375 622.467773438 c 1
 602.50390625 617.916015625 597.30078125 612.713867188 592.26171875 606.698242188 c 1
 655.015625 603.12109375 705.088867188 596.943359375 722.484375 588.001953125 c 1
 722.484375 588.001953125 711.591796875 550.447265625 676.637695312 531.100585938 c 0
 661.193359375 537.44140625 615.021484375 541.66796875 558.283203125 543.944335938 c 0
 526.255859375 453.876953125 526.255859375 320.240234375 558.283203125 230.173828125 c 0
 615.184570312 232.450195312 661.193359375 236.676757812 676.637695312 242.854492188 c 0
EndSplineSet
EndChar

StartChar: J
Encoding: 74 74 17
Width: 1000
Flags: H
LayerCount: 2
Fore
SplineSet
599.251953125 605.884765625 m 2
 625.1015625 620.516601562 676.962890625 626.532226562 715.818359375 626.532226562 c 0
 754.673828125 626.532226562 806.373046875 620.516601562 832.384765625 605.884765625 c 1
 754.673828125 536.465820312 754.673828125 259.112304688 832.384765625 189.692382812 c 1
 571.614257812 118.97265625 180.295898438 114.908203125 83.7265625 299.918945312 c 1
 148.755859375 377.791992188 l 1
 190.212890625 366.737304688 l 1
 12.35546875 219.76953125 570.4765625 155.2265625 646.399414062 265.127929688 c 1
 646.399414062 265.127929688 715.818359375 428.353515625 599.251953125 605.72265625 c 1
 599.251953125 605.884765625 l 2
EndSplineSet
EndChar

StartChar: K
Encoding: 75 75 18
Width: 1000
Flags: H
LayerCount: 2
Fore
SplineSet
799.544921875 199.28515625 m 2
 799.70703125 199.122070312 l 2
 821.4921875 193.919921875 835.798828125 187.416992188 835.798828125 180.9140625 c 0
 835.798828125 166.119140625 765.241210938 152.137695312 695.822265625 151.487304688 c 0
 626.564453125 152.30078125 555.844726562 166.282226562 555.844726562 180.9140625 c 0
 555.844726562 193.106445312 604.6171875 204.8125 660.706054688 208.876953125 c 1
 574.377929688 309.8359375 377.174804688 367.387695312 239.635742188 374.866210938 c 1
 240.7734375 280.897460938 255.080078125 189.205078125 282.717773438 151.650390625 c 0
 263.534179688 135.23046875 225.166992188 128.40234375 196.390625 128.40234375 c 0
 167.615234375 128.40234375 129.247070312 135.23046875 110.063476562 151.650390625 c 0
 167.615234375 230.173828125 167.615234375 543.944335938 110.063476562 622.305664062 c 0
 129.247070312 638.725585938 167.615234375 645.553710938 196.390625 645.553710938 c 0
 225.166992188 645.553710938 263.534179688 638.725585938 282.717773438 622.305664062 c 0
 258.819335938 589.953125 244.837890625 517.282226562 240.7734375 437.782226562 c 1
 379.938476562 444.7734375 576.329101562 497.28515625 649.163085938 566.0546875 c 1
 597.951171875 570.768554688 555.681640625 581.661132812 555.681640625 593.041992188 c 0
 555.681640625 607.8359375 626.239257812 621.817382812 695.659179688 622.467773438 c 0
 764.916015625 621.655273438 835.63671875 607.673828125 835.63671875 593.041992188 c 0
 835.63671875 584.262695312 810.599609375 575.80859375 775.80859375 570.28125 c 0
 720.208007812 534.677734375 612.583007812 481.352539062 621.200195312 406.405273438 c 0
 631.279296875 318.615234375 765.241210938 294.553710938 799.544921875 199.28515625 c 2
EndSplineSet
EndChar

StartChar: L
Encoding: 76 76 19
Width: 1000
Flags: H
LayerCount: 2
Fore
SplineSet
263.697265625 237.977539062 m 1
 263.534179688 237.977539062 l 1
 500.569335938 291.301757812 668.671875 322.6796875 846.529296875 206.275390625 c 1
 781.499023438 128.40234375 l 1
 740.041992188 139.45703125 l 1
 800.032226562 286.262695312 388.879882812 238.302734375 312.95703125 128.40234375 c 1
 126.971679688 203.836914062 l 1
 126.971679688 203.836914062 196.390625 428.028320312 79.82421875 605.560546875 c 1
 105.836914062 620.19140625 157.53515625 626.20703125 196.390625 626.20703125 c 0
 235.24609375 626.20703125 287.107421875 620.19140625 312.95703125 605.560546875 c 1
 258.982421875 557.275390625 242.5625 347.553710938 263.697265625 237.977539062 c 1
EndSplineSet
EndChar

StartChar: M
Encoding: 77 77 20
Width: 1000
Flags: H
LayerCount: 2
Fore
SplineSet
657.94140625 645.065429688 m 1
 657.616210938 645.065429688 l 1
 790.278320312 575.971679688 872.37890625 299.918945312 842.626953125 127.263671875 c 1
 767.6796875 123.849609375 678.588867188 142.220703125 619.249023438 197.984375 c 1
 657.616210938 237.977539062 l 1
 657.616210938 237.977539062 711.428710938 203.673828125 743.130859375 207.087890625 c 2
 792.553710938 173.59765625 l 1
 818.403320312 211.640625 l 1
 770.606445312 243.993164062 l 2
 772.8828125 292.440429688 749.471679688 436.319335938 657.779296875 530.288085938 c 0
 606.73046875 513.54296875 500.081054688 363.323242188 454.560546875 278.295898438 c 1
 409.0390625 363.485351562 302.227539062 513.705078125 251.340820312 530.288085938 c 0
 159.811523438 436.319335938 136.23828125 292.440429688 138.513671875 243.993164062 c 2
 90.716796875 211.640625 l 1
 116.56640625 173.59765625 l 1
 165.989257812 207.087890625 l 2
 197.529296875 203.836914062 251.50390625 237.977539062 251.50390625 237.977539062 c 1
 289.87109375 197.984375 l 1
 230.53125 142.383789062 141.602539062 123.849609375 66.4931640625 127.263671875 c 1
 36.7421875 300.081054688 118.842773438 576.133789062 251.50390625 645.065429688 c 0
 317.671875 617.590820312 416.680664062 488.018554688 454.72265625 406.405273438 c 1
 492.765625 488.018554688 591.936523438 617.590820312 657.94140625 645.065429688 c 1
EndSplineSet
EndChar

StartChar: N
Encoding: 78 78 21
Width: 1000
Flags: H
LayerCount: 2
Fore
SplineSet
455.2109375 372.58984375 m 0
 395.3828125 411.932617188 322.548828125 471.2734375 217.850585938 512.079101562 c 0
 25.5244140625 587.026367188 72.345703125 78.9794921875 228.90625 268.216796875 c 1
 264.998046875 226.272460938 l 1
 150.70703125 131.002929688 l 1
 64.8671875 230.499023438 -18.0458984375 477.938476562 150.70703125 646.854492188 c 1
 281.254882812 543.293945312 472.606445312 401.528320312 472.606445312 401.528320312 c 2
 532.43359375 362.184570312 605.267578125 302.844726562 709.965820312 262.0390625 c 0
 902.291992188 187.091796875 855.470703125 695.138671875 698.911132812 505.901367188 c 1
 662.819335938 547.845703125 l 1
 777.109375 643.115234375 l 1
 862.94921875 543.619140625 945.862304688 296.1796875 777.109375 127.263671875 c 1
 646.561523438 230.82421875 455.2109375 372.58984375 455.2109375 372.58984375 c 0
EndSplineSet
EndChar

StartChar: O
Encoding: 79 79 22
Width: 1000
Flags: H
LayerCount: 2
Fore
SplineSet
320.598632812 386.24609375 m 0
 320.598632812 410.6328125 391.15625 434.04296875 460.575195312 435.181640625 c 0
 529.833007812 434.04296875 600.552734375 410.794921875 600.552734375 386.24609375 c 0
 600.552734375 361.859375 529.995117188 338.44921875 460.575195312 337.310546875 c 0
 391.318359375 338.44921875 320.598632812 361.697265625 320.598632812 386.24609375 c 0
157.860351562 387.546875 m 1
 157.860351562 274.556640625 327.426757812 176.036132812 393.26953125 176.036132812 c 1
 393.26953125 130.02734375 l 1
 310.84375 130.02734375 56.0888671875 258.13671875 56.0888671875 386.24609375 c 0
 56.0888671875 514.35546875 267.436523438 645.065429688 478.946289062 645.065429688 c 1
 478.946289062 467.858398438 l 1
 434.888671875 467.858398438 l 1
 434.888671875 467.858398438 439.765625 593.041992188 380.263671875 593.041992188 c 0
 366.282226562 593.041992188 340.7578125 588.327148438 318.322265625 577.434570312 c 0
 243.700195312 542.155273438 158.0234375 473.223632812 158.0234375 387.383789062 c 1
 157.860351562 387.546875 l 1
763.290039062 384.9453125 m 1
 763.290039062 497.935546875 593.724609375 596.456054688 527.881835938 596.456054688 c 1
 527.881835938 642.46484375 l 1
 610.307617188 642.46484375 865.0625 514.35546875 865.0625 386.24609375 c 0
 865.0625 258.13671875 653.71484375 127.426757812 442.204101562 127.426757812 c 1
 442.204101562 304.633789062 l 1
 486.262695312 304.633789062 l 1
 486.262695312 304.633789062 481.384765625 179.450195312 540.887695312 179.450195312 c 0
 554.869140625 179.450195312 580.393554688 184.165039062 602.829101562 195.057617188 c 0
 677.451171875 230.336914062 763.127929688 299.268554688 763.127929688 385.108398438 c 1
 763.290039062 384.9453125 l 1
EndSplineSet
EndChar

StartChar: P
Encoding: 80 80 23
Width: 1000
Flags: H
LayerCount: 2
Fore
SplineSet
79.01171875 155.389648438 m 1
 79.173828125 155.389648438 l 1
 222.078125 271.956054688 210.046875 438.920898438 109.575195312 562.477539062 c 1
 269.711914062 638.725585938 555.356445312 692.375 805.884765625 570.606445312 c 1
 759.2265625 507.202148438 741.831054688 474.849609375 800.032226562 387.221679688 c 1
 721.345703125 322.6796875 522.516601562 342.838867188 416.030273438 363.16015625 c 1
 430.82421875 493.220703125 l 1
 472.118164062 482.490234375 l 1
 413.103515625 337.635742188 813.688476562 312.599609375 702.325195312 544.26953125 c 1
 63.404296875 744.561523438 250.528320312 210.665039062 335.23046875 155.389648438 c 1
 306.779296875 131.002929688 249.877929688 120.760742188 207.12109375 120.760742188 c 0
 164.36328125 120.760742188 107.461914062 131.002929688 79.01171875 155.389648438 c 1
EndSplineSet
EndChar

StartChar: Q
Encoding: 81 81 24
Width: 1000
Flags: H
LayerCount: 2
Fore
SplineSet
838.725585938 621.004882812 m 1
 838.5625 621.004882812 l 1
 730.775390625 506.876953125 697.610351562 243.66796875 853.682617188 31.83203125 c 1
 646.561523438 131.002929688 372.78515625 232.125 86.65234375 145.634765625 c 1
 163.712890625 246.918945312 209.396484375 543.619140625 62.103515625 646.854492188 c 1
 284.83203125 604.584960938 633.555664062 558.901367188 838.725585938 621.004882812 c 1
187.611328125 222.533203125 m 1
 303.040039062 246.268554688 412.778320312 236.676757812 513.575195312 214.891601562 c 1
 684.766601562 358.12109375 l 2
 688.34375 441.196289062 712.892578125 511.591796875 734.677734375 551.259765625 c 1
 545.602539062 516.793945312 304.991210938 555.8125 178.833007812 578.41015625 c 1
 237.359375 469.484375 218.338867188 304.633789062 187.611328125 222.533203125 c 1
595.1875 194.407226562 m 1
 640.383789062 181.7265625 683.303710938 167.58203125 723.78515625 154.088867188 c 1
 705.4140625 194.08203125 694.521484375 234.23828125 688.994140625 272.931640625 c 1
 595.1875 194.407226562 l 1
EndSplineSet
EndChar

StartChar: R
Encoding: 82 82 25
Width: 1000
Flags: H
LayerCount: 2
Fore
SplineSet
248.415039062 411.607421875 m 1
 248.577148438 411.4453125 l 1
 248.577148438 478.750976562 l 1
 352.137695312 458.104492188 580.068359375 422.337890625 718.256835938 529.474609375 c 1
 571.126953125 643.440429688 322.38671875 595.48046875 230.206054688 576.296875 c 2
 65.0302734375 613.526367188 l 1
 222.240234375 647.504882812 593.88671875 730.743164062 844.416015625 529.474609375 c 1
 730.938476562 438.432617188 592.749023438 405.754882812 460.900390625 400.227539062 c 1
 460.900390625 400.227539062 466.265625 393.237304688 476.99609375 383.64453125 c 0
 659.2421875 219.931640625 692.5703125 217.16796875 748.333984375 259.762695312 c 1
 795.48046875 217.98046875 l 1
 683.791015625 136.85546875 l 1
 335.555664062 402.178710938 l 1
 333.116210938 296.830078125 347.422851562 186.116210938 378.474609375 143.846679688 c 0
 359.291015625 127.426757812 320.923828125 120.598632812 292.147460938 120.598632812 c 0
 263.372070312 120.598632812 225.00390625 127.426757812 205.8203125 143.846679688 c 0
 237.684570312 187.416992188 251.991210938 303.495117188 248.415039062 411.607421875 c 1
318.484375 530.125 m 0
 318.484375 546.544921875 389.041992188 562.15234375 458.461914062 562.965820312 c 0
 527.71875 562.15234375 598.439453125 546.544921875 598.439453125 530.125 c 0
 598.439453125 513.705078125 527.881835938 498.09765625 458.461914062 497.28515625 c 0
 389.205078125 498.09765625 318.484375 513.705078125 318.484375 530.125 c 0
EndSplineSet
EndChar

StartChar: S
Encoding: 83 83 26
Width: 1000
Flags: H
LayerCount: 2
Fore
SplineSet
812.713867188 470.623046875 m 1
 813.038085938 470.948242188 l 1
 759.713867188 472.248046875 l 1
 844.903320312 654.0078125 223.377929688 638.5625 226.629882812 519.0703125 c 2
 226.629882812 484.604492188 l 1
 391.481445312 387.383789062 629.491210938 467.858398438 818.56640625 339.75 c 1
 818.56640625 222.533203125 l 1
 729.149414062 101.739257812 234.108398438 116.859375 93.96875 151.487304688 c 1
 93.96875 275.6953125 l 1
 141.440429688 293.416015625 l 1
 177.694335938 108.405273438 595.1875 172.78515625 639.895507812 247.244140625 c 2
 639.895507812 302.032226562 l 1
 483.499023438 421.037109375 226.3046875 339.586914062 53.162109375 442.497070312 c 1
 53.162109375 535.327148438 l 1
 264.998046875 699.69140625 666.0703125 649.618164062 829.946289062 597.918945312 c 1
 812.713867188 470.623046875 l 1
EndSplineSet
EndChar

StartChar: T
Encoding: 84 84 27
Width: 1000
Flags: H
LayerCount: 2
Fore
SplineSet
459.4375 551.91015625 m 1
 459.4375 552.073242188 l 1
 459.4375 552.073242188 714.517578125 677.581054688 855.795898438 641.000976562 c 1
 826.370117188 520.37109375 l 1
 682.490234375 492.895507812 754.348632812 639.538085938 538.44921875 520.37109375 c 0
 487.563476562 475.662109375 440.904296875 278.458984375 576.81640625 142.545898438 c 1
 549.666992188 129.376953125 508.209960938 126.61328125 459.4375 126.61328125 c 0
 410.665039062 126.61328125 369.208007812 129.376953125 342.05859375 142.545898438 c 1
 477.970703125 278.295898438 431.311523438 475.662109375 380.42578125 520.37109375 c 0
 164.526367188 639.538085938 236.546875 492.895507812 92.5048828125 520.37109375 c 1
 63.0791015625 641.000976562 l 1
 204.51953125 677.581054688 459.4375 551.91015625 459.4375 551.91015625 c 1
EndSplineSet
EndChar

StartChar: U
Encoding: 85 85 28
Width: 1000
Flags: H
LayerCount: 2
Fore
SplineSet
705.4140625 643.115234375 m 2
 786.701171875 596.29296875 860.185546875 498.748046875 860.185546875 383.64453125 c 0
 860.185546875 307.72265625 843.115234375 234.888671875 805.235351562 181.564453125 c 0
 711.266601562 129.865234375 460.575195312 124.98828125 460.575195312 124.98828125 c 1
 460.575195312 124.98828125 209.884765625 129.865234375 115.916015625 181.564453125 c 0
 78.0361328125 234.888671875 60.9658203125 307.72265625 60.9658203125 383.64453125 c 0
 60.9658203125 498.911132812 134.44921875 596.29296875 215.737304688 643.115234375 c 2
 384.978515625 604.91015625 l 1
 356.365234375 559.713867188 l 1
 356.365234375 559.713867188 149.081054688 596.943359375 151.357421875 392.912109375 c 0
 152.169921875 372.427734375 153.958984375 351.942382812 157.047851562 331.946289062 c 0
 177.694335938 237.815429688 374.573242188 182.5390625 460.575195312 182.5390625 c 0
 546.578125 182.5390625 743.293945312 237.815429688 764.103515625 331.946289062 c 0
 767.192382812 352.10546875 769.143554688 372.427734375 769.793945312 392.912109375 c 0
 772.069335938 596.943359375 564.786132812 559.713867188 564.786132812 559.713867188 c 1
 536.172851562 604.91015625 l 1
 705.4140625 643.115234375 l 2
EndSplineSet
EndChar

StartChar: V
Encoding: 86 86 29
Width: 1000
Flags: H
LayerCount: 2
Fore
SplineSet
456.8359375 125.150390625 m 1
 289.708984375 191.643554688 50.0732421875 467.696289062 30.2392578125 643.115234375 c 1
 194.27734375 643.115234375 l 1
 194.27734375 583.9375 l 1
 131.198242188 583.9375 l 2
 48.7724609375 583.9375 252.479492188 347.228515625 427.897460938 347.228515625 c 1
 427.897460938 256.999023438 l 1
 485.9375 256.999023438 l 1
 485.9375 347.228515625 l 1
 661.35546875 347.228515625 865.0625 583.9375 782.63671875 583.9375 c 2
 719.557617188 583.9375 l 1
 719.557617188 643.115234375 l 1
 883.595703125 643.115234375 l 1
 863.924804688 467.696289062 624.2890625 191.643554688 456.999023438 125.150390625 c 1
 456.8359375 125.150390625 l 1
EndSplineSet
EndChar

StartChar: W
Encoding: 87 87 30
Width: 1000
Flags: H
LayerCount: 2
Fore
SplineSet
844.252929688 642.790039062 m 1
 874.00390625 469.97265625 791.903320312 193.919921875 659.2421875 124.98828125 c 0
 593.07421875 152.462890625 494.06640625 282.03515625 456.0234375 363.6484375 c 1
 417.98046875 282.03515625 318.809570312 152.462890625 252.8046875 124.98828125 c 0
 120.142578125 194.08203125 38.04296875 470.134765625 67.7939453125 642.790039062 c 1
 142.741210938 646.204101562 231.83203125 627.833007812 291.171875 572.069335938 c 1
 252.8046875 532.076171875 l 1
 52.51171875 656.12109375 158.999023438 368.850585938 228.743164062 267.891601562 c 1
 228.743164062 205.299804688 l 1
 276.865234375 205.299804688 l 1
 276.865234375 253.747070312 l 2
 332.141601562 296.666992188 416.842773438 418.2734375 456.0234375 491.594726562 c 1
 495.204101562 418.111328125 579.905273438 296.504882812 635.181640625 253.747070312 c 2
 635.181640625 205.299804688 l 1
 683.303710938 205.299804688 l 1
 683.303710938 267.891601562 l 1
 753.047851562 369.012695312 859.53515625 656.12109375 659.2421875 532.076171875 c 1
 620.875 572.069335938 l 1
 680.21484375 627.669921875 769.143554688 646.204101562 844.252929688 642.790039062 c 1
EndSplineSet
EndChar

StartChar: X
Encoding: 88 88 31
Width: 1000
Flags: H
LayerCount: 2
Fore
SplineSet
727.524414062 249.1953125 m 0
 737.928710938 244.643554688 747.520507812 241.229492188 755.8125 239.115234375 c 0
 761.827148438 211.477539062 746.708007812 178.962890625 729.962890625 159.12890625 c 0
 713.217773438 139.293945312 683.791015625 118.809570312 655.666015625 119.78515625 c 0
 652.4140625 127.1015625 647.211914062 136.04296875 640.545898438 145.797851562 c 0
 629.166015625 138.969726562 616.97265625 134.580078125 603.641601562 135.067382812 c 2
 570.4765625 162.868164062 l 1
 586.896484375 162.217773438 601.690429688 169.37109375 614.859375 179.61328125 c 1
 570.638671875 232.775390625 503.495117188 292.602539062 459.4375 292.602539062 c 0
 418.956054688 292.602539062 352.625976562 232.612304688 308.73046875 179.61328125 c 1
 322.061523438 169.37109375 336.693359375 162.217773438 353.276367188 162.868164062 c 1
 320.110351562 135.067382812 l 2
 306.779296875 134.580078125 294.5859375 138.969726562 283.206054688 145.797851562 c 0
 276.540039062 136.04296875 271.337890625 127.1015625 268.086914062 119.78515625 c 0
 239.798828125 118.647460938 210.53515625 139.293945312 193.790039062 159.12890625 c 0
 177.20703125 179.125 162.087890625 211.477539062 167.940429688 239.115234375 c 0
 176.231445312 241.229492188 185.823242188 244.643554688 196.228515625 249.1953125 c 0
 191.350585938 261.713867188 189.237304688 274.556640625 192.000976562 287.725585938 c 2
 225.166992188 315.526367188 l 1
 221.752929688 299.10546875 226.3046875 283.173828125 234.270507812 268.216796875 c 1
 282.393554688 295.204101562 341.5703125 336.823242188 400.422851562 383.969726562 c 1
 341.5703125 431.1171875 282.393554688 472.736328125 234.270507812 499.723632812 c 1
 226.3046875 484.766601562 221.58984375 468.833984375 225.166992188 452.4140625 c 1
 192.000976562 480.21484375 l 2
 189.237304688 493.3828125 191.350585938 506.389648438 196.228515625 518.745117188 c 0
 185.823242188 523.296875 176.231445312 526.7109375 167.940429688 528.82421875 c 0
 161.924804688 556.461914062 177.043945312 588.977539062 193.790039062 608.811523438 c 0
 210.53515625 628.645507812 239.9609375 649.129882812 268.086914062 648.154296875 c 0
 271.337890625 640.838867188 276.540039062 631.897460938 283.206054688 622.142578125 c 0
 294.5859375 628.970703125 306.779296875 633.360351562 320.110351562 632.873046875 c 2
 353.276367188 605.072265625 l 1
 336.693359375 605.72265625 322.061523438 598.569335938 308.892578125 588.327148438 c 1
 353.11328125 535.165039062 420.094726562 475.01171875 461.875976562 475.01171875 c 0
 503.658203125 475.01171875 570.638671875 535.165039062 614.859375 588.327148438 c 1
 601.690429688 598.569335938 587.05859375 605.72265625 570.4765625 605.072265625 c 1
 603.641601562 632.873046875 l 2
 616.97265625 633.360351562 629.166015625 628.970703125 640.545898438 622.142578125 c 0
 647.211914062 632.059570312 652.4140625 640.838867188 655.666015625 648.154296875 c 0
 683.954101562 649.29296875 713.217773438 628.645507812 729.962890625 608.811523438 c 0
 746.544921875 588.814453125 761.665039062 556.461914062 755.8125 528.82421875 c 0
 747.520507812 526.7109375 737.928710938 523.296875 727.524414062 518.745117188 c 0
 732.401367188 506.2265625 734.514648438 493.3828125 731.750976562 480.21484375 c 2
 698.5859375 452.4140625 l 1
 702 468.833984375 697.447265625 484.766601562 689.481445312 499.723632812 c 1
 641.359375 472.736328125 582.181640625 431.1171875 523.329101562 383.969726562 c 1
 582.181640625 336.823242188 641.359375 295.204101562 689.481445312 268.216796875 c 1
 697.447265625 283.173828125 702.162109375 299.10546875 698.5859375 315.526367188 c 1
 731.750976562 287.725585938 l 2
 734.514648438 274.556640625 732.401367188 261.55078125 727.524414062 249.1953125 c 0
EndSplineSet
EndChar

StartChar: Y
Encoding: 89 89 32
Width: 1000
Flags: H
LayerCount: 2
Fore
SplineSet
839.375976562 644.252929688 m 1
 874.329101562 644.252929688 l 1
 854.169921875 481.352539062 682.002929688 103.690429688 212.323242188 120.2734375 c 1
 212.323242188 160.428710938 l 1
 352.625976562 180.42578125 512.599609375 210.990234375 509.8359375 289.676757812 c 0
 507.072265625 368.36328125 342.220703125 451.763671875 170.37890625 621.4921875 c 1
 242.237304688 630.271484375 l 1
 383.83984375 506.064453125 491.46484375 375.841796875 586.896484375 384.620117188 c 0
 682.328125 393.399414062 782.311523438 522.159179688 839.375976562 644.252929688 c 1
EndSplineSet
EndChar

StartChar: Z
Encoding: 90 90 33
Width: 1000
Flags: H
LayerCount: 2
Fore
SplineSet
595.67578125 543.944335938 m 1
 479.109375 573.857421875 172.817382812 641.9765625 132.82421875 463.306640625 c 1
 96.89453125 469.97265625 l 1
 106.974609375 612.225585938 l 1
 341.083007812 681.157226562 733.702148438 622.630859375 823.768554688 586.5390625 c 1
 577.466796875 444.28515625 427.572265625 361.697265625 321.249023438 222.208007812 c 1
 437.815429688 192.293945312 744.106445312 124.174804688 784.100585938 302.844726562 c 1
 820.029296875 296.1796875 l 1
 809.94921875 153.92578125 l 1
 575.841796875 84.994140625 183.22265625 143.521484375 93.1552734375 179.61328125 c 1
 339.45703125 321.866210938 489.3515625 404.454101562 595.67578125 543.944335938 c 1
EndSplineSet
EndChar

StartChar: a
Encoding: 97 97 34
Width: 1000
Flags: H
LayerCount: 2
Fore
SplineSet
462.364257812 317.314453125 m 0
 404.32421875 317.314453125 270.850585938 265.453125 229.71875 124.012695312 c 1
 204.194335938 124.012695312 l 1
 216.0625 218.143554688 331.978515625 398.276367188 462.364257812 445.423828125 c 1
 592.749023438 398.276367188 708.665039062 218.143554688 720.533203125 124.012695312 c 1
 695.008789062 124.012695312 l 1
 653.876953125 265.615234375 520.403320312 317.314453125 462.364257812 317.314453125 c 0
EndSplineSet
EndChar

StartChar: b
Encoding: 98 98 35
Width: 1000
Flags: H
LayerCount: 2
Fore
SplineSet
687.04296875 344.301757812 m 1
 687.04296875 344.139648438 l 2
 640.05859375 309.998046875 535.685546875 275.6953125 431.311523438 275.6953125 c 1
 535.685546875 275.6953125 640.05859375 241.5546875 687.04296875 207.250976562 c 1
 593.88671875 148.723632812 350.836914062 103.040039062 221.915039062 148.723632812 c 1
 298.48828125 198.634765625 290.846679688 348.041015625 221.915039062 402.829101562 c 1
 350.836914062 448.512695312 593.88671875 402.829101562 687.04296875 344.301757812 c 1
369.533203125 379.580078125 m 2
 351.8125 361.859375 359.291015625 326.418945312 385.791015625 313.086914062 c 2
 385.791015625 313.086914062 463.6640625 323.00390625 504.145507812 346.08984375 c 1
 481.709960938 376.491210938 369.533203125 379.580078125 369.533203125 379.580078125 c 2
504.145507812 205.462890625 m 1
 463.6640625 228.547851562 385.791015625 238.46484375 385.791015625 238.46484375 c 2
 359.12890625 225.133789062 351.8125 189.692382812 369.533203125 171.971679688 c 2
 369.533203125 171.971679688 481.709960938 175.060546875 504.145507812 205.462890625 c 1
EndSplineSet
EndChar

StartChar: c
Encoding: 99 99 36
Width: 1000
Flags: H
LayerCount: 2
Fore
SplineSet
377.01171875 219.119140625 m 1
 377.01171875 218.793945312 l 2
 413.103515625 150.51171875 539.424804688 146.772460938 689.643554688 193.919921875 c 1
 572.915039062 71.98828125 237.684570312 142.05859375 225.817382812 183.352539062 c 0
 231.181640625 184.978515625 235.896484375 187.7421875 240.286132812 190.993164062 c 2
 240.286132812 372.427734375 l 2
 235.896484375 375.678710938 231.181640625 378.442382812 225.817382812 380.068359375 c 0
 237.684570312 421.362304688 572.915039062 491.594726562 689.643554688 369.500976562 c 1
 539.424804688 416.647460938 413.103515625 412.908203125 377.01171875 344.626953125 c 0
 340.919921875 276.345703125 377.01171875 219.119140625 377.01171875 219.119140625 c 1
EndSplineSet
EndChar

StartChar: d
Encoding: 100 100 37
Width: 1000
Flags: H
LayerCount: 2
Fore
SplineSet
222.240234375 421.525390625 m 1
 222.240234375 421.362304688 l 1
 366.76953125 448.674804688 616.97265625 411.770507812 703.950195312 281.22265625 c 1
 616.97265625 150.674804688 366.932617188 113.770507812 222.240234375 141.083007812 c 1
 222.240234375 142.220703125 l 2
 277.515625 221.719726562 281.580078125 348.366210938 222.240234375 421.525390625 c 1
329.865234375 281.873046875 m 0
 329.865234375 134.7421875 638.7578125 281.873046875 638.7578125 281.873046875 c 1
 638.7578125 281.873046875 329.865234375 429.002929688 329.865234375 281.873046875 c 0
EndSplineSet
EndChar

StartChar: e
Encoding: 101 101 38
Width: 1000
Flags: H
LayerCount: 2
Fore
SplineSet
386.116210938 218.630859375 m 2
 386.116210938 218.305664062 l 2
 422.208007812 150.024414062 548.528320312 146.28515625 698.748046875 193.431640625 c 1
 582.01953125 71.5009765625 246.7890625 141.5703125 234.920898438 182.864257812 c 0
 240.286132812 184.490234375 245.000976562 187.25390625 249.390625 190.505859375 c 2
 249.390625 371.939453125 l 2
 245.000976562 375.19140625 240.286132812 377.955078125 234.920898438 379.580078125 c 0
 246.7890625 420.875 582.01953125 491.107421875 698.748046875 369.012695312 c 1
 548.528320312 416.16015625 422.208007812 412.420898438 386.116210938 344.139648438 c 0
 393.756835938 329.669921875 405.462890625 317.96484375 420.744140625 309.185546875 c 0
 479.759765625 303.0078125 540.075195312 309.8359375 573.40234375 281.384765625 c 1
 539.912109375 252.934570312 479.596679688 259.762695312 420.744140625 253.584960938 c 0
 405.625 244.805664062 393.756835938 233.100585938 386.116210938 218.630859375 c 2
EndSplineSet
EndChar
